<svg xmlns="http://www.w3.org/2000/svg" viewBox="0 0 365.83 320.37"><defs><style>.cls-1{fill:#1d1d1b;}</style></defs><title>Recurso 11</title><g id="Capa_2" data-name="Capa 2"><g id="Capa_17" data-name="Capa 17"><path class="cls-1" d="M128,82.23H270a1,1,0,0,0,0-2H128a1,1,0,0,0,0,2Z"/><path class="cls-1" d="M106.1,106.77V239.53a1,1,0,0,0,2,0V106.77a1,1,0,0,0-2,0Z"/><path class="cls-1" d="M127.52,269.63h143a1,1,0,0,0,0-2h-143a1,1,0,0,0,0,2Z"/><path class="cls-1" d="M291.07,196.13l-.48-69.39-.13-19.47a1,1,0,0,0-2,0l.47,69.39.13,19.47a1,1,0,0,0,2,0Z"/><path class="cls-1" d="M272.52,81.05a19.26,19.26,0,0,1,18.17,19.59,1,1,0,0,0,2,0,21.22,21.22,0,0,0-20.15-21.57c-1.27-.08-1.27,1.9,0,2Z"/><path class="cls-1" d="M130,79.22c-6.94.45-14.33,1.07-19.91,5.7-5.3,4.4-6.21,11.34-6.82,17.78-.12,1.27,1.86,1.26,2,0,.56-5.93,1.35-12.34,6.24-16.37,5.14-4.24,12.16-4.71,18.51-5.13,1.27-.08,1.28-2.07,0-2Z"/><path class="cls-1" d="M107.13,245.15a25,25,0,0,0,17,21c1.22.39,1.74-1.53.53-1.91a22.92,22.92,0,0,1-15.58-19.07c-.13-1.26-2.11-1.27-2,0Z"/><path class="cls-1" d="M275.88,267.11a20.75,20.75,0,0,0,15.94-18.9c.07-1.28-1.92-1.27-2,0a18.77,18.77,0,0,1-14.48,17c-1.25.27-.72,2.18.52,1.91Z"/><path class="cls-1" d="M273.56,239.5H356.8a1,1,0,0,0,0-2H273.56a1,1,0,0,0,0,2Z"/><path class="cls-1" d="M69.82,101.63h30.64a1,1,0,0,0,0-2H69.82a1,1,0,0,0,0,2Z"/><path class="cls-1" d="M191.28,78.61a14.28,14.28,0,0,0-5-18c-2.12-1.39-4.51-1.74-6.93-2.29A9,9,0,0,1,176.05,57c-1.38-1-1.83-2.62-2.26-4.16a21.91,21.91,0,0,0-3.36-7.17,20.84,20.84,0,0,0-13-8.27A21.25,21.25,0,0,0,140,42.31l1.7.7c-.63-10.15-8.89-18.9-18.76-20.89S103.4,25.93,99.15,34.9a22.18,22.18,0,0,0-1.49,15.72l1.65-1A15.28,15.28,0,0,0,72.59,63.2l1.66-1a14,14,0,0,0-12.91-2.4A17,17,0,0,0,51,68.72c-4.44,8.9-3.16,21.93,4.27,28.92,4,3.8,10.19,5.56,15.45,3.43,1.16-.47.65-2.39-.53-1.91a12.82,12.82,0,0,1-12.48-2c-3.77-2.9-5.85-7.49-6.73-12.06-1.58-8.21.6-18.75,8.89-22.57,4.14-1.91,9.41-1.89,13,1.14a1,1,0,0,0,1.66-1,13.3,13.3,0,0,1,23.4-11.61c.64.8,1.92-.07,1.66-1-2.48-8.49,1.49-18.07,8.65-23,7.79-5.4,17.91-3.84,24.71,2.43A20.3,20.3,0,0,1,139.67,43a1,1,0,0,0,1.7.71A19.15,19.15,0,0,1,156,39.2a18.73,18.73,0,0,1,12.7,7.48,20,20,0,0,1,3.15,6.7c.66,2.31,1.54,4.49,3.76,5.7s4.53,1.28,6.79,1.92a10.74,10.74,0,0,1,5.24,3.37c3.1,3.55,4.13,9,1.91,13.24-.59,1.13,1.12,2.14,1.71,1Z"/><path class="cls-1" d="M360.79,239.42a18.18,18.18,0,0,0-13.5-30.81l.26,1.95a9,9,0,0,0,5.95-7.08,10.35,10.35,0,0,0-2.87-9.16c-6.37-6.59-16.17-4.5-23.62-1.26l1.36.35a21.9,21.9,0,0,0-16.43-11.5,20.92,20.92,0,0,0-18.53,7.22,21.3,21.3,0,0,0-5,10.36l1.46-.59a13.91,13.91,0,0,0-21.46,13.37l1.25-1c-6.19-1.4-12.78,1.87-15.89,7.33-3.31,5.82-1.47,12.95,3.52,17.19a14.18,14.18,0,0,0,10.21,3.54c1.27-.1,1.28-2.08,0-2-7.22.55-14.23-6.15-13.42-13.52.77-6.92,8.31-12.16,15-10.64.56.12,1.34-.28,1.26-1a11.95,11.95,0,0,1,18.48-11.66,1,1,0,0,0,1.46-.59,20,20,0,0,1,10.77-14.42,19,19,0,0,1,18.28,1,19.29,19.29,0,0,1,7.25,7.79,1,1,0,0,0,1.36.35c6.35-2.76,14.62-4.79,20.45.23a8.58,8.58,0,0,1,3.18,7.59,7.07,7.07,0,0,1-4.62,6,1,1,0,0,0,.27,2A16.2,16.2,0,0,1,359.39,238c-.88.93.52,2.33,1.4,1.4Z"/><path class="cls-1" d="M112.2,224.7h61.28a1,1,0,0,0,0-2H112.2a1,1,0,0,0,0,2Z"/><path class="cls-1" d="M193.9,224.7h55.66a1,1,0,0,0,0-2H193.9a1,1,0,0,0,0,2Z"/><path class="cls-1" d="M114.24,182.82h124.6a1,1,0,0,0,0-2H114.24a1,1,0,0,0,0,2Z"/><path class="cls-1" d="M252.63,181.29h35.23a1,1,0,0,0,0-2H252.63a1,1,0,0,0,0,2Z"/><path class="cls-1" d="M309.71,97.58c1.19-14.5,1.15-29.46-2.8-43.57a64.32,64.32,0,0,0-8.82-19.23,62.22,62.22,0,0,0-15.44-15.31A97,97,0,0,0,263.23,9.13,128.51,128.51,0,0,0,239.44,2C223.94-1,207.6-.88,192.57,4.3c-13,4.49-24.95,12.52-33.11,23.72-1,1.39-2,2.82-2.84,4.29a1,1,0,0,0,1.72,1c7-11.65,18.13-20.38,30.63-25.54C203.08,2,218.69.82,233.71,3a117,117,0,0,1,43.35,15.17A65.74,65.74,0,0,1,293.5,32a58.35,58.35,0,0,1,10.2,18.41c4.64,13.42,5.21,27.91,4.39,42-.1,1.73-.23,3.47-.37,5.2-.1,1.27,1.88,1.26,2,0Z"/><path class="cls-1" d="M312.57,103.84a53.65,53.65,0,0,1,30.73,21.43,52.24,52.24,0,0,1,8.28,38.56,52.89,52.89,0,0,1-8.78,21.38c-.73,1,1,2,1.72,1a55.8,55.8,0,0,0,9.06-40.88,55.07,55.07,0,0,0-40.48-43.41,1,1,0,0,0-.53,1.91Z"/><path class="cls-1" d="M48.1,130.08c-18.85-2.65-36,12.07-40.37,29.78-2.53,10.21-1.45,21.09,2,30.95,3.34,9.56,8.88,18.74,16.51,25.49,8.66,7.65,20.54,11.92,32,9.11,1.24-.31.71-2.22-.53-1.92-9.84,2.41-20.21-.78-28.06-6.91-7.57-5.9-13.2-14.3-16.82-23.13-3.73-9.08-5.5-19.2-4-29A39.38,39.38,0,0,1,21.1,141c7.09-6.48,16.8-10.4,26.47-9,1.25.18,1.79-1.73.53-1.91Z"/><path class="cls-1" d="M61.18,102.88c-6.7,1.25-13.32,4.38-17.63,9.81-4.13,5.2-5.88,12.39-3.62,18.76.42,1.19,2.34.68,1.91-.53-2.11-5.95-.43-12.7,3.61-17.43s10.11-7.55,16.26-8.69c1.25-.24.72-2.15-.53-1.92Z"/><path class="cls-1" d="M50.81,130a14.31,14.31,0,0,1,12.37-17.67c1.25-.14,1.27-2.13,0-2A16.3,16.3,0,0,0,48.9,130.53c.3,1.24,2.21.72,1.91-.53Z"/><path class="cls-1" d="M62.4,229.67a70.79,70.79,0,0,0,6.92,40.54A82.69,82.69,0,0,0,96.83,301.9a104.93,104.93,0,0,0,40.82,16.37c14.93,2.71,31.16,3.26,45.82-1.17,13.06-4,25.09-12.71,30.37-25.63a33.57,33.57,0,0,0,1.55-4.8,1,1,0,0,0-1.91-.53c-3.23,13.08-14.09,22.88-26.35,27.61-14,5.41-29.95,5.42-44.65,3.31a107,107,0,0,1-40-13.86,82.1,82.1,0,0,1-28.88-29.11c-6.73-11.68-10.48-25.17-9.79-38.69.09-1.74.25-3.47.48-5.2.18-1.25-1.74-1.79-1.91-.53Z"/><path class="cls-1" d="M215.24,285.72c10.94,10.44,24.32,19.14,39.58,21.19,14.47,2,29.82-2.36,39-14.23a32.21,32.21,0,0,0,7-21.19c-.07-1.27-2.06-1.27-2,0,.7,13.34-8.37,25.5-20.35,30.64-13.58,5.83-29.27,3.38-42.06-3.3a87.25,87.25,0,0,1-19.73-14.52c-.93-.88-2.33.52-1.41,1.41Z"/><path class="cls-1" d="M300,271.53a31.73,31.73,0,0,0,26.63,5.05,30.58,30.58,0,0,0,20.07-17.48,30.9,30.9,0,0,0,2.56-14.94c-.11-1.26-2.1-1.27-2,0a29.79,29.79,0,0,1-8.77,23.46,28.56,28.56,0,0,1-23.77,7.74A29.2,29.2,0,0,1,301,269.82c-1-.77-2,.95-1,1.71Z"/><path class="cls-1" d="M2.41,199.65H44.29c3.21,0,3.22-5,0-5H2.41c-3.21,0-3.22,5,0,5Z"/><path class="cls-1" d="M35.1,191H66.76c3.21,0,3.22-5,0-5H35.1c-3.22,0-3.23,5,0,5Z"/><path class="cls-1" d="M58.07,200.67h8.17a2.5,2.5,0,0,0,0-5H58.07a2.5,2.5,0,0,0,0,5Z"/><path class="cls-1" d="M41.22,209.86H90.76c3.21,0,3.22-5,0-5H41.22c-3.21,0-3.22,5,0,5Z"/><path class="cls-1" d="M5,210.37H31c3.22,0,3.22-5,0-5H5c-3.22,0-3.22,5,0,5Z"/><path class="cls-1" d="M34.07,220.08h14.3a2.5,2.5,0,0,0,0-5H34.07a2.5,2.5,0,1,0,0,5Z"/><path class="cls-1" d="M227.61,45.44h48c3.21,0,3.22-5,0-5h-48c-3.22,0-3.23,5,0,5Z"/><path class="cls-1" d="M265.9,35.48c3.22,0,3.23-5,0-5s-3.22,5,0,5Z"/><path class="cls-1" d="M266.93,36h28.85c3.21,0,3.22-5,0-5H266.93c-3.22,0-3.23,5,0,5Z"/><path class="cls-1" d="M282.5,26.8h10.72a2.5,2.5,0,0,0,0-5H282.5a2.5,2.5,0,0,0,0,5Z"/><path class="cls-1" d="M284,45.44h6.9a2.5,2.5,0,0,0,0-5H284a2.5,2.5,0,0,0,0,5Z"/><path class="cls-1" d="M298.59,46h19.65c3.22,0,3.23-5,0-5H298.59c-3.22,0-3.23,5,0,5Z"/><path class="cls-1" d="M242.67,53.61h12.26a2.5,2.5,0,0,0,0-5H242.67a2.5,2.5,0,0,0,0,5Z"/><path class="cls-1" d="M263.61,52.84h7.91a2.5,2.5,0,0,0,0-5h-7.91a2.5,2.5,0,0,0,0,5Z"/><path class="cls-1" d="M284.8,54.37h37.53c3.22,0,3.22-5,0-5H284.8c-3.22,0-3.22,5,0,5Z"/><path class="cls-1" d="M267.18,61h19.15c3.22,0,3.22-5,0-5H267.18c-3.22,0-3.22,5,0,5Z"/><path class="cls-1" d="M116.51,144.89v97.37c0,3.21,5,3.22,5,0V144.89c0-3.21-5-3.22-5,0Z"/><path class="cls-1" d="M123.78,253.61c3.21,0,3.22-5,0-5s-3.23,5,0,5Z"/><path class="cls-1" d="M136.37,257.69h41.87c3.22,0,3.23-5,0-5H136.37c-3.21,0-3.22,5,0,5Z"/><path class="cls-1" d="M191.86,257H261c3.22,0,3.22-5,0-5H191.86c-3.22,0-3.22,5,0,5Z"/><path class="cls-1" d="M272.54,254c3.22,0,3.23-5,0-5s-3.22,5,0,5Z"/><path class="cls-1" d="M275.83,241.24v4.08a2.61,2.61,0,0,0,.73,1.77,2.57,2.57,0,0,0,1.77.73,2.53,2.53,0,0,0,1.77-.73,2.59,2.59,0,0,0,.73-1.77v-4.08a2.57,2.57,0,0,0-.73-1.77,2.52,2.52,0,0,0-1.77-.73,2.49,2.49,0,0,0-1.77.73,2.59,2.59,0,0,0-.73,1.77Z"/><path class="cls-1" d="M278.45,195.28V141.83c0-3.22-5-3.22-5,0v53.45c0,3.22,5,3.22,5,0Z"/><path class="cls-1" d="M130.93,145c3.21,0,3.22-5,0-5s-3.23,5,0,5Z"/><path class="cls-1" d="M144.88,145c3.22,0,3.23-5,0-5s-3.22,5,0,5Z"/><path class="cls-1" d="M156.46,145.35c3.21,0,3.22-5,0-5s-3.23,5,0,5Z"/><path class="cls-1" d="M168.71,145.35c3.22,0,3.23-5,0-5s-3.22,5,0,5Z"/><path class="cls-1" d="M180.63,145.35c3.21,0,3.22-5,0-5s-3.22,5,0,5Z"/><path class="cls-1" d="M191.86,145.69c3.22,0,3.22-5,0-5s-3.22,5,0,5Z"/><path class="cls-1" d="M206.16,145.69c3.22,0,3.22-5,0-5s-3.22,5,0,5Z"/><path class="cls-1" d="M219.44,145.35c3.21,0,3.22-5,0-5s-3.23,5,0,5Z"/><path class="cls-1" d="M230.33,145.35c3.22,0,3.22-5,0-5s-3.22,5,0,5Z"/><path class="cls-1" d="M243.27,145c3.21,0,3.22-5,0-5s-3.23,5,0,5Z"/><path class="cls-1" d="M254.16,146c3.22,0,3.22-5,0-5s-3.22,5,0,5Z"/><path class="cls-1" d="M266.76,145.69c3.21,0,3.22-5,0-5s-3.23,5,0,5Z"/><path class="cls-1" d="M135.69,95.48h57.19c2.57,0,2.57-4,0-4H135.69c-2.56,0-2.57,4,0,4Z"/><path class="cls-1" d="M209.22,95.82h30c2.56,0,2.57-4,0-4h-30c-2.56,0-2.56,4,0,4Z"/><path class="cls-1" d="M254.5,95.48h20.09c2.56,0,2.56-4,0-4H254.5c-2.56,0-2.57,4,0,4Z"/><path class="cls-1" d="M116.68,107.11v15.66c0,2.56,4,2.57,4,0V107.11c0-2.57-4-2.57-4,0Z"/><path class="cls-1" d="M124.8,99.23c2.56,0,2.57-4,0-4s-2.57,4,0,4Z"/><path class="cls-1" d="M277.31,102.29c2.56,0,2.57-4,0-4s-2.57,4,0,4Z"/><path class="cls-1" d="M274,108.13v16c0,2.56,4,2.57,4,0v-16c0-2.56-4-2.57-4,0Z"/><path class="cls-1" d="M70.87,67.83c-3.47,0-7.15,0-10.28,1.76A8.81,8.81,0,0,0,55.78,77a1.5,1.5,0,0,0,3,0c0-2.26,1.74-4.06,3.69-5,2.55-1.27,5.63-1.18,8.41-1.17a1.49,1.49,0,0,0,0-3Z"/><path class="cls-1" d="M94.44,54.24a10.75,10.75,0,0,0-12-2.32,1.5,1.5,0,0,0-.53,2,1.53,1.53,0,0,0,2,.53c-.15.07,0,0,0,0s.23-.09.35-.12a5.18,5.18,0,0,1,.56-.17l.65-.14c.1,0,.2,0,0,0L86,54a8.72,8.72,0,0,1,1.25,0l.3,0,.24,0,.16,0,.37.07a8.25,8.25,0,0,1,1.2.35l.28.1c.24.09-.3-.15.11.05l.53.26a7.48,7.48,0,0,1,1.11.71l0,0,.22.19c.18.17.36.34.53.52a1.49,1.49,0,0,0,2.11-2.11Z"/><path class="cls-1" d="M135.62,37.85a19.09,19.09,0,0,0-26.36-8.72c-1.7.89-.19,3.46,1.51,2.58A16.3,16.3,0,0,1,133,39.36c.82,1.74,3.39.22,2.58-1.51Z"/><path class="cls-1" d="M352.82,220.55a10.05,10.05,0,0,1,1.64,10.3,1.53,1.53,0,0,0,.53,2,1.5,1.5,0,0,0,2-.53,13.12,13.12,0,0,0-2.1-13.92,1.5,1.5,0,0,0-2.11,0,1.53,1.53,0,0,0,0,2.11Z"/><path class="cls-1" d="M337.83,198.43a5.6,5.6,0,0,1,.7-.2l.3-.06h.09a5,5,0,0,1,.67,0l.36,0c.3,0-.15,0,0,0l.66.15.35.11c.07,0,.41.17.1,0a4.63,4.63,0,0,1,.54.28l.31.19s.35.28.09,0c.17.15.33.29.49.45l.2.22s.27.35.07.07a9,9,0,0,1,.66,1.13c-.16-.32,0,0,0,.09s.07.23.11.34.09.39.13.58,0-.24,0,.08c0,.12,0,.24,0,.36a5.77,5.77,0,0,1,0,.72,1.5,1.5,0,0,0,1.49,1.49,1.54,1.54,0,0,0,1.5-1.49,7.32,7.32,0,0,0-9.7-7.46,1.49,1.49,0,1,0,.8,2.87Z"/></g></g></svg>