<svg xmlns="http://www.w3.org/2000/svg" viewBox="0 0 237.18 243.71"><title>Recurso 5</title><g id="Capa_2" data-name="Capa 2"><g id="Capa_17" data-name="Capa 17"><path d="M112.59,176.55c-5.61-2.06-11.09-4.62-16.85-6.08-19.79-5-36.31,2.19-50.9,14.92C28.38,199.74,17,217.82,7.58,237.31a15.52,15.52,0,0,1-1.78,3.55,22.8,22.8,0,0,1-3.64,2.85c-.75-1.49-2.2-3-2.16-4.49.56-18.13,3.34-35.78,12.87-51.66,2.69-4.48,3-8.78.27-13.11-10-15.78-3.5-30.5,9.35-40.1,15.35-11.47,33-17.82,51.36-22.34,16.06-4,32.38-6.33,48.93-4a65.71,65.71,0,0,1,16.27,4.44c12,5.1,15.71,15.64,16.25,27.58.79,17.4-8.32,28.8-23,36.62-1.54.83-3,1.72-4.24,2.39,6.07,8.76,11.84,17.1,17.88,25.84,1.12-4.57,2.16-9,3.33-13.49,3.89-14.88,10.58-28.33,21.16-39.59C180.65,141,185.83,128,188,113.49c.67-4.45-1.09-6.08-4.86-7.54a102.73,102.73,0,0,1-41-28.44c-16.35-18.77-22-40.9-21.08-65.22a31.41,31.41,0,0,1,.87-7.91c.52-1.67,2.32-2.93,3.55-4.38.77,1.7,2.28,3.44,2.17,5.08-.76,11.55-.65,23,3.33,34a70.38,70.38,0,0,0,8.21,16.35c5,7.07,9.94,7.88,18.46,4.47-2-4.5-4.71-8.83-5.93-13.53a82,82,0,0,1-2.26-17.13c-.16-3.6,2.67-4.91,5.26-2.62,6.91,6.1,13.54,12.61,15.58,22a17.44,17.44,0,0,1-.8,9.54c-1.07,2.73-.54,3.91,1.57,5.23a15.08,15.08,0,0,0,17.61-1.7c4.32-3.84,4.82-8.31,1.56-15-.95-1.94-2.43-3.66-3.1-5.67-.44-1.3.16-2.94.29-4.43,1.44.3,3.35.11,4.26,1,6.57,6.2,8.22,19.69,3.43,26.2-5.62,7.66-18.52,10.13-27.05,4.62-3.74-2.42-6.69-3.36-11.28-1.92s-9.62.72-14.93,1c11.51,16,27.24,26.76,47.06,34.34,0-4.16-.13-7.55,0-10.92A70.08,70.08,0,0,1,190,79.07c1.08-4.82,5.09-7.08,9.48-4.88a94,94,0,0,1,15.88,10.15,208.18,208.18,0,0,1,18.21,16.29c2,2,4.09,5.69,3.48,7.86s-4.32,4.47-7,5c-10.49,2.23-20.83.07-31.08-2.25-1-.21-1.92-.54-2.9-.67a1.2,1.2,0,0,0-.83.2c-2.49,8.61-4.11,17.2-7.49,25a71,71,0,0,1-12,18.76,94.3,94.3,0,0,0-23.61,52.85c-1.18,9.86-.82,19.9-1.21,29.85-.09,2.19.64,5.45-2.87,5-1.23-.15-2.93-3.25-3-5.05-.46-16.94-4.63-32.55-15.43-46-.31-.39-.61-.79-.91-1.19-4.47-5.91-9.08-7.95-17.25-5.42C94.56,189.9,77,193,59.78,197.39c-12.76,3.29-13.44,5.74-6,16.56,5.59,8.07,11.34,16,16.76,24.21.83,1.25.25,3.43.33,5.18-1.72-.52-4.22-.5-5-1.66-7.56-10.93-15-21.94-22.1-33.19-3.22-5.12-2.23-9.5,3.35-12a156.78,156.78,0,0,1,23.95-8.06c13-3.4,26.15-6.14,39.23-9.2a8.31,8.31,0,0,0,1.93-1.13ZM7.83,220.47l1.34.63c.26-.42.53-.83.78-1.25.52-.85,1.05-1.69,1.56-2.55,8.22-14,17.86-26.91,30.37-37.38,11.74-9.82,24.84-16.53,40.63-16.85,12.36-.26,23.5,3.53,34.17,9.36,1.94,1.06,4.7,2.62,6.28,2,14.2-5.83,27.52-15.8,26.5-34.53-.74-13.5-6.84-21.5-19.92-24.59a77.1,77.1,0,0,0-17.29-2.18A154.63,154.63,0,0,0,50.2,126a160.26,160.26,0,0,0-24.74,13.8c-9.24,6.1-15.46,17.84-8.27,29.41,5.2,8.38,4.54,16-.63,24.19S9.09,211,7.83,220.47ZM231.71,107.08c-2.81-2.68-4.48-4.49-6.37-6C217.13,94.3,208.92,87.57,200.57,81c-3.23-2.55-5.23-1.22-5.51,2.66-.22,3.15-.17,6.32-.19,9.48-.05,10.89-.1,11.2,10.33,13.47C213.4,108.38,221.78,109.41,231.71,107.08Zm-75.19-69.6-1.73.58,8,18.63C166.47,50.86,163.3,42.94,156.52,37.48Z"/></g></g></svg>