<svg xmlns="http://www.w3.org/2000/svg" viewBox="0 0 246.93 172.1"><defs><style>.cls-1{stroke:#1d1d1b;stroke-miterlimit:10;}.cls-2{fill:#1d1d1b;}</style></defs><title>Recurso 8</title><g id="Capa_2" data-name="Capa 2"><g id="Capa_17" data-name="Capa 17"><path class="cls-1" d="M80.08,124.59c-4-1.46-7.84-3.27-11.91-4.3-14-3.55-25.66,1.55-36,10.54C20.56,141,12.48,153.76,5.86,167.53A10.73,10.73,0,0,1,4.6,170a9,9,0,0,1-1.67,1.38,1,1,0,0,1-1.45-.28,4.47,4.47,0,0,1-1-2.25c.39-12.82,2.36-25.3,9.1-36.52,1.9-3.17,2.12-6.21.19-9.27C2.73,112,7.32,101.54,16.4,94.76,27.25,86.66,39.73,82.16,52.7,79c11.35-2.79,22.88-4.48,34.59-2.81a46.67,46.67,0,0,1,11.5,3.14c8.47,3.61,11.1,11.06,11.48,19.5.56,12.29-5.88,20.36-16.24,25.88-.71.38-1.4.77-2,1.13a1,1,0,0,0-.33,1.48l10.69,15.45a1,1,0,0,0,1.85-.34c.59-2.46,1.18-4.89,1.81-7.3,2.75-10.52,7.48-20,15-28,7.2-7.68,10.87-16.84,12.4-27.11.47-3.14-.77-4.29-3.44-5.32a72.65,72.65,0,0,1-29-20.1C89.41,41.32,85.38,25.68,86.06,8.49a22,22,0,0,1,.62-5.59A5.46,5.46,0,0,1,88.23.8,1,1,0,0,1,89.84,1a4.57,4.57,0,0,1,.88,2.38c-.54,8.17-.46,16.29,2.35,24.05A49.68,49.68,0,0,0,98.87,39c3.3,4.69,6.6,5.48,12,3.56a1,1,0,0,0,.6-1.41c-1.36-2.82-3-5.58-3.72-8.55a57.93,57.93,0,0,1-1.6-12.11C106,17.94,108,17,109.85,18.63c5,4.41,9.77,9.11,11.1,16a11.89,11.89,0,0,1-.7,6.43c-.69,1.85-.3,2.66,1.16,3.57a10.64,10.64,0,0,0,12.45-1.2c3-2.71,3.4-5.87,1.09-10.57a34.7,34.7,0,0,1-2.18-4,4.46,4.46,0,0,1,.06-2.17,1,1,0,0,1,1.11-.84,3.47,3.47,0,0,1,2,.56c4.64,4.38,5.81,13.92,2.43,18.52-4,5.41-13.09,7.15-19.12,3.26-2.65-1.71-4.73-2.38-8-1.36-2.6.82-5.51.64-8.54.65a1,1,0,0,0-.83,1.64c7.73,10.07,18,17.06,30.65,22.12a1,1,0,0,0,1.41-1c0-2.27-.06-4.23,0-6.19a48.84,48.84,0,0,1,.76-8.39c.76-3.41,3.6-5,6.7-3.45a65.92,65.92,0,0,1,11.22,7.17A147.85,147.85,0,0,1,165.6,70.92c1.4,1.4,2.9,4,2.46,5.56s-3.05,3.16-5,3.57c-7.41,1.57-14.72,0-22-1.59a20.33,20.33,0,0,0-2-.48.86.86,0,0,0-.58.14c-1.76,6.09-2.9,12.16-5.29,17.69a50.45,50.45,0,0,1-8.49,13.26A66.65,66.65,0,0,0,108,146.42c-.84,7-.59,14.06-.86,21.1-.06,1.55.45,3.85-2,3.54-.87-.1-2.07-2.3-2.11-3.57-.32-12-3.27-23-10.9-32.51-.22-.27-.43-.55-.65-.83-3.15-4.19-6.41-5.62-12.19-3.83-11.4,3.53-23.23,5.66-34.84,8.56-6.75,1.7-9,7.69-5,13.4,3.67,5.28,7.43,10.5,11,15.85a4.26,4.26,0,0,1,.27,2.47,1,1,0,0,1-1.21.94c-1-.18-2-.34-2.38-.91-5.34-7.73-10.61-15.52-15.62-23.47-2.28-3.62-1.58-6.71,2.37-8.46A111.07,111.07,0,0,1,50.75,133c9.18-2.4,18.49-4.34,27.73-6.51a3.09,3.09,0,0,0,1-.58,1,1,0,0,0,.41-.62Zm-74,31,.94.44c.19-.29.37-.58.55-.88.37-.6.75-1.19,1.1-1.8,5.82-9.9,12.63-19,21.47-26.42,8.3-6.94,17.56-11.68,28.72-11.91,8.73-.18,16.61,2.5,24.15,6.62,1.37.74,3.33,1.85,4.44,1.4,10-4.12,19.45-11.17,18.73-24.41-.52-9.54-4.84-15.2-14.08-17.38a54.25,54.25,0,0,0-12.22-1.54A109.15,109.15,0,0,0,36,88.89a113.48,113.48,0,0,0-17.49,9.75C12,103,7.57,111.25,12.65,119.43c3.68,5.92,3.21,11.32-.44,17.1S6.93,148.91,6,155.63Zm156.3-79.74a1,1,0,0,0,.54-1.76c-1.21-1.19-2.12-2.1-3.1-2.91-5.81-4.76-11.62-9.53-17.51-14.17-2.29-1.81-3.7-.87-3.9,1.88-.16,2.22-.12,4.46-.13,6.7,0,7.7-.08,7.91,7.3,9.52A41.73,41.73,0,0,0,162.34,75.89Zm-46.6-43.84-3,1.36,1.8,4.22a1,1,0,0,0,1.94-.19A9,9,0,0,0,115.74,32.05Z"/><path class="cls-2" d="M163.32,109.89q13.45,0,22.51,9a31.45,31.45,0,0,1,0,44.15,30,30,0,0,1-22,9.05,30.3,30.3,0,0,1-22.23-9,29.68,29.68,0,0,1-9.06-21.82,31.54,31.54,0,0,1,4.13-15.81,30.48,30.48,0,0,1,26.68-15.53Zm.26,5.75a25.25,25.25,0,0,0-21.64,12.65,25.54,25.54,0,0,0-3.31,12.92,24.91,24.91,0,0,0,25,25.1A25.31,25.31,0,0,0,176.34,163a23.84,23.84,0,0,0,9.15-9.14,25.67,25.67,0,0,0,3.28-12.89,25.07,25.07,0,0,0-3.28-12.75,24.7,24.7,0,0,0-9.25-9.12A25.08,25.08,0,0,0,163.58,115.64Z"/><path class="cls-2" d="M200.89,117.17v-5.8h32.43v5.8h-13.2v53.4h-6v-53.4Z"/><path class="cls-2" d="M241,111.37h5.92v59.2H241Z"/></g></g></svg>